<svg xmlns="http://www.w3.org/2000/svg" width="489.559" height="368.966" viewBox="0 0 489.559 368.966">
  <g id="Group_3" data-name="Group 3" transform="translate(-659 -213)">
    <g id="Group_2" data-name="Group 2" transform="translate(659 213)">
      <g id="undraw_close_tab_uk6g" transform="translate(0)">
        <path id="Path_1" data-name="Path 1" d="M378.879,327.826,327.391,486.3H160.756L109.267,327.826l134.806-97.944Z" transform="translate(-56.357 -118.566)" fill="#3f3d56"/>
        <path id="Path_2" data-name="Path 2" d="M389.91,531.488h-.821v-.821h-.16v.821h-.821v.16h.821v.821h.16v-.821h.821Z" transform="translate(-200.175 -273.703)" fill="#f2f2f2"/>
        <path id="Path_3" data-name="Path 3" d="M370.369,633.845h-.821v-.821h-.16v.821h-.821v.16h.821v.821h.16v-.821h.821Z" transform="translate(-190.096 -326.496)" fill="#f2f2f2"/>
        <path id="Path_4" data-name="Path 4" d="M482.032,664.553h-.821v-.821h-.16v.821h-.821v.16h.821v.821h.16v-.821h.821Z" transform="translate(-247.689 -342.334)" fill="#f2f2f2"/>
        <circle id="Ellipse_1" data-name="Ellipse 1" cx="1.802" cy="1.802" r="1.802" transform="translate(223.079 281.296)" fill="#ff6584"/>
        <circle id="Ellipse_2" data-name="Ellipse 2" cx="3.154" cy="3.154" r="3.154" transform="translate(80.76 201.469)" fill="#f2f2f2"/>
        <path id="Path_5" data-name="Path 5" d="M268.14,609.544l-.468-.105a106.515,106.515,0,0,1,207.72-.283l-.467.106A105.422,105.422,0,0,0,371.564,526.9C322.4,526.9,278.908,561.654,268.14,609.544Z" transform="translate(-183.815 -304.931)" fill="#f2f2f2"/>
        <rect id="Rectangle_4" data-name="Rectangle 4" width="4.761" height="188.048" transform="translate(243.366 180.1)" fill="#f2f2f2"/>
        <path id="Path_6" data-name="Path 6" d="M598.569,363.85c.3,65.756-45.96,119.276-45.96,119.276s-46.754-53.091-47.057-118.847S551.511,245,551.511,245,598.266,298.094,598.569,363.85Z" transform="translate(-306.507 -159.785)" fill="red"/>
        <rect id="Rectangle_5" data-name="Rectangle 5" width="2.647" height="104.56" transform="translate(141.321 263.413)" fill="#f2f2f2"/>
        <path id="Path_7" data-name="Path 7" d="M387.171,570.132c.169,36.562-25.555,66.32-25.555,66.32s-26-29.52-26.165-66.082,25.555-66.32,25.555-66.32S387,533.57,387.171,570.132Z" transform="translate(-218.774 -293.394)" fill="red"/>
        <path id="Path_8" data-name="Path 8" d="M387.171,570.132c.169,36.562-25.555,66.32-25.555,66.32s-26-29.52-26.165-66.082,25.555-66.32,25.555-66.32S387,533.57,387.171,570.132Z" transform="translate(-218.774 -293.394)" opacity="0.1"/>
        <rect id="Rectangle_6" data-name="Rectangle 6" width="2.647" height="104.56" transform="translate(106.908 263.413)" fill="#f2f2f2"/>
        <path id="Path_9" data-name="Path 9" d="M316.105,570.132c.168,36.562-25.555,66.32-25.555,66.32s-26-29.52-26.165-66.082,25.555-66.32,25.555-66.32S315.937,533.57,316.105,570.132Z" transform="translate(-182.12 -293.394)" fill="red"/>
        <path id="Path_10" data-name="Path 10" d="M297.788,312.815h-.821v-.821h-.16v.821h-.821v.16h.821v.821h.16v-.821h.821Z" transform="translate(-152.661 -160.917)" fill="#f2f2f2"/>
        <path id="Path_11" data-name="Path 11" d="M278.247,415.173h-.821v-.821h-.16v.821h-.821v.16h.821v.821h.16v-.821h.821Z" transform="translate(-142.582 -213.711)" fill="#f2f2f2"/>
        <path id="Path_12" data-name="Path 12" d="M389.91,445.88h-.821v-.821h-.16v.821h-.821v.16h.821v.821h.16v-.821h.821Z" transform="translate(-200.175 -229.549)" fill="#f2f2f2"/>
        <circle id="Ellipse_3" data-name="Ellipse 3" cx="1.802" cy="1.802" r="1.802" transform="translate(178.471 175.408)" fill="#ff6584"/>
        <path id="Path_13" data-name="Path 13" d="M654.846,365.7a36.954,36.954,0,1,1,17.146,13.767A11.953,11.953,0,1,1,654.846,365.7Z" transform="translate(-380.25 -192.337)" fill="#3f3d56"/>
        <ellipse id="Ellipse_4" data-name="Ellipse 4" cx="2.146" cy="7.312" rx="2.146" ry="7.312" transform="translate(290.364 158.657) rotate(-30)" fill="red"/>
        <ellipse id="Ellipse_5" data-name="Ellipse 5" cx="15.786" cy="2.146" rx="15.786" ry="2.146" transform="translate(297.385 169.173) rotate(-60)" fill="red"/>
        <circle id="Ellipse_6" data-name="Ellipse 6" cx="19.375" cy="19.375" r="19.375" transform="translate(19.03 328.984)" fill="#3f3d56"/>
        <circle id="Ellipse_7" data-name="Ellipse 7" cx="13.968" cy="13.968" r="13.968" transform="translate(24.437 308.708)" fill="#3f3d56"/>
        <circle id="Ellipse_8" data-name="Ellipse 8" cx="9.913" cy="9.913" r="9.913" transform="translate(28.492 291.135)" fill="#3f3d56"/>
        <path id="Path_14" data-name="Path 14" d="M94.5,671.68q37.917-4.946,72.912-8.408l-8.974-15.046c3.119-.868,16.626,7.841,16.626,7.841l-11.407-43.514c15.59,1.75,22.839,46.131,22.839,46.131L204.17,643.9l-8.708,16.742c71.391-6.236,132.993-8.159,184.775-7.678l-7.681-12.878c3.119-.868,16.626,7.841,16.626,7.841l-11.407-43.514c15.59,1.75,22.839,46.131,22.839,46.131l17.679-14.782L409.069,653.5c43.4,1.209,78.759,4.082,106.038,7.213-7.66-20.014-34.442-39.266-34.442-39.266,20.6,5.378,31.311,14.126,36.853,22.232A297.248,297.248,0,0,0,495.277,522.7s41.529,78.337,35.261,130.541l-.8,9.273c36.168,4.746,54.315,9.467,54.315,9.467Z" transform="translate(-94.497 -303.011)" fill="#3f3d56"/>
        <path id="Path_15" data-name="Path 15" d="M935.191,722.637,932.8,750.161l-10.77,2.393-2.393-7.18s4.188-19.745,4.188-23.335Z" transform="translate(-520.078 -405.827)" fill="#a0616a"/>
        <path id="Path_16" data-name="Path 16" d="M879.781,683.732s4.787,11.967,6.582,13.164-5.385,16.754-5.385,16.754l-10.77-1.8s3.59-12.565.6-19.745Z" transform="translate(-494.586 -386.069)" fill="#a0616a"/>
        <path id="Path_17" data-name="Path 17" d="M877.164,697.943s4.488,1.5,6.283,8.078a65.789,65.789,0,0,1,1.795,7.18l-2.992,6.582h-1.8s-2.992,10.172-2.393,13.762S873.873,750.9,865.5,750.3s-6.582-10.77-6.582-10.77l4.188-20.942s0-5.385,1.2-5.385,10.77,1.8,10.77,1.8v1.8S881.95,707.516,877.164,697.943Z" transform="translate(-488.678 -393.399)" fill="#2f2e41"/>
        <path id="Path_18" data-name="Path 18" d="M918.724,766.607v-3.59s12.565,1.8,12.565,3.59v4.188s10.77,22.737-1.2,22.737-14.36-4.787-14.36-4.787v-6.582s-5.983-2.992-5.983-4.787,5.839-17.652,5.839-17.652S915.732,769,918.724,766.607Z" transform="translate(-514.98 -425.264)" fill="#2f2e41"/>
        <circle id="Ellipse_9" data-name="Ellipse 9" cx="19.147" cy="19.147" r="19.147" transform="translate(398.957 6.866)" fill="#a0616a"/>
        <path id="Path_19" data-name="Path 19" d="M944.069,146.639s-2.393,11.369-2.393,12.565-11.369,6.582-11.369,6.582l-10.172-1.8-3.59-10.77s5.984-8.975,5.984-12.565Z" transform="translate(-518.485 -105.966)" fill="#a0616a"/>
        <path id="Path_20" data-name="Path 20" d="M913.15,164.509S906.974,174.571,898,171.58a12.378,12.378,0,0,1-8.78-11.571L859.7,170.383l5.385,43.679-4.787,50.86,3.59,6.582h52.655s1.8-8.975,2.393-8.975,1.795-1.8,1.2-2.393-1.8-1.2-1.2-2.992,1.2-21.54,1.2-21.54l17.95-52.056Z" transform="translate(-489.169 -115.948)" fill="#d0cde1"/>
        <path id="Path_21" data-name="Path 21" d="M1001.318,398.735,990.549,413.1s-1.795-14.959-4.188-15.557l5.983-4.188Z" transform="translate(-554.494 -236.299)" fill="#a0616a"/>
        <path id="Path_22" data-name="Path 22" d="M754.674,380.993s-16.155,10.172-14.36,16.754,20.344-11.369,20.344-11.967S754.674,380.993,754.674,380.993Z" transform="translate(-427.519 -229.925)" fill="#a0616a"/>
        <path id="Path_23" data-name="Path 23" d="M899.745,379.081h1.2l1.8,8.377A19.992,19.992,0,0,1,907.523,409l-9.573,62.826-1.2,73-10.77,2.992-11.967-2.393-2.992-97.53s-4.188-8.975-2.393-11.967-.6-2.393-.6-2.393l-12.566,34.7s4.188,11.369,0,14.959c0,0,.6,1.795,0,2.393s-3.59,2.992-2.393,4.188,1.795,0,1.795,1.795,5.983,16.754,3.59,35.9l-7.779,11.967-7.18-4.188-13.164-37.1s2.992-5.385,0-6.582-3.59-2.393-2.393-4.188,1.2-7.779-.6-10.77,0-7.779,0-7.779l6.582-60.433s-2.992-16.155,7.18-24.532l1.8-6.582S857.861,388.056,899.745,379.081Z" transform="translate(-472.067 -228.013)" fill="#2f2e41"/>
        <path id="Path_24" data-name="Path 24" d="M953.194,79.6s-6.079-13.171-17.731-10.132-18.237,7.6-18.744,12.158a65.047,65.047,0,0,0,.253,11.4s1.267-9.372,9.372-7.346,20.77.507,20.77.507l2.026,18.237s2.28-3.293,4.813-1.266S961.3,83.657,953.194,79.6Z" transform="translate(-518.485 -69.017)" fill="#2f2e41"/>
        <path id="Path_25" data-name="Path 25" d="M996.029,208.617H1005s7.779,6.582,7.18,19.147l4.188,35.3s0,17.352-7.18,29.917l-7.778,14.959s-2.992-8.377-11.967-7.18l4.787-12.565v-2.992s1.8-2.393,1.8-2.992-2.393-.6-.6-1.8,3.59-13.164,3.59-13.164a10.109,10.109,0,0,0-1.2-2.992c-.6-.6.6-2.393.6-2.393l-1.2-1.8-7.779-29.319Z" transform="translate(-556.086 -141.019)" fill="#d0cde1"/>
        <path id="Path_26" data-name="Path 26" d="M820.8,177.726l-10.172,1.8s-5.983,5.983-8.377,13.164l-4.787,21.54-7.778,15.557s-8.975,8.975-15.557,29.319l-9.574,17.95,10.172,5.983s28.122-32.909,31.712-44.278L822,208.84Z" transform="translate(-440.094 -125.086)" fill="#d0cde1"/>
      </g>
    </g>
  </g>
</svg>
